inDegrees=no
num_controls=7
num_derivatives=13
num_iterations=128
num_multipliers=7
num_parameters=0
num_slacks=7
num_states=26
objective=5.248975
objective_accelerations=0.367877
objective_balance=0.033220
objective_effort=0.174333
objective_height=4.584227
objective_ligament=0.089319
solver_duration=1422.570168
status=Solve_Succeeded
success=true
DataType=double
version=3
OpenSimVersion=4.4-2022-07-23-0e9fedc
endheader
time	/jointset/ground_pelvis/pelvis_tilt/value	/jointset/ground_pelvis/pelvis_tx/value	/jointset/ground_pelvis/pelvis_ty/value	/jointset/hip_l/hip_flexion_l/value	/jointset/hip_l/hip_adduction_l/value	/jointset/hip_l/hip_rotation_l/value	/jointset/back/lumbar_extension/value	/jointset/patellofemoral_l/patellar_flexion_l/value	/jointset/knee_l/knee_flexion_l/value	/jointset/knee_l/knee_adduction_l/value	/jointset/knee_l/knee_rotation_l/value	/jointset/ankle_l/ankle_angle_l/value	/jointset/subtalar_l/subtalar_angle_l/value	/jointset/ground_pelvis/pelvis_tilt/speed	/jointset/ground_pelvis/pelvis_tx/speed	/jointset/ground_pelvis/pelvis_ty/speed	/jointset/hip_l/hip_flexion_l/speed	/jointset/hip_l/hip_adduction_l/speed	/jointset/hip_l/hip_rotation_l/speed	/jointset/back/lumbar_extension/speed	/jointset/patellofemoral_l/patellar_flexion_l/speed	/jointset/knee_l/knee_flexion_l/speed	/jointset/knee_l/knee_adduction_l/speed	/jointset/knee_l/knee_rotation_l/speed	/jointset/ankle_l/ankle_angle_l/speed	/jointset/subtalar_l/subtalar_angle_l/speed	/forceset/tau_hip_flexion_l	/forceset/tau_hip_adduction_l	/forceset/tau_hip_rotation_l	/forceset/tau_knee_flexion_l	/forceset/tau_ankle_angle_l	/forceset/tau_subtalar_angle_l	/forceset/tau_lumbar_extension	lambda_cid13_p0	lambda_cid13_p1	lambda_cid13_p2	lambda_cid13_p3	lambda_cid13_p4	lambda_cid13_p5	lambda_cid14_p0	/jointset/ground_pelvis/pelvis_tilt/accel	/jointset/ground_pelvis/pelvis_tx/accel	/jointset/ground_pelvis/pelvis_ty/accel	/jointset/hip_l/hip_flexion_l/accel	/jointset/hip_l/hip_adduction_l/accel	/jointset/hip_l/hip_rotation_l/accel	/jointset/back/lumbar_extension/accel	/jointset/patellofemoral_l/patellar_flexion_l/accel	/jointset/knee_l/knee_flexion_l/accel	/jointset/knee_l/knee_adduction_l/accel	/jointset/knee_l/knee_rotation_l/accel	/jointset/ankle_l/ankle_angle_l/accel	/jointset/subtalar_l/subtalar_angle_l/accel	gamma_cid13_p0	gamma_cid13_p1	gamma_cid13_p2	gamma_cid13_p3	gamma_cid13_p4	gamma_cid13_p5	gamma_cid14_p0
1	-0.2029900321669055	0.07609415591100345	0.7152710055723805	0.9973059991856426	-0.5018387695655421	-0.0859380797659505	-0.2617984980111186	1.149217090017808	1.149217090018482	-0.1600359638505258	-0.1745322830916228	0.4362997932483691	0.08915385508328205	-0.01621050778946081	0.008995764619200548	-0.0003020237704057826	0.001956507499056415	-0.00214612037332008	-0.001547121287724448	-1.246701964083053e-05	-0.000760979093536082	-0.0007609790935359786	-0.001845242203087978	-4.164529583747186e-07	0.01253461777020663	0.006638548568178076	-0.1301348790433803	0.07314326360591	-0.01026363788406694	-0.3085337781665744	-0.1021931302122262	0.02461972777823938	0.1492951434394414	-69.2344259065337	-1.103114327006679	2.733487695264891	13.4113034044616	-599.2436894672779	-66.10319837087002	-10.21713138969317	0.6249385869739912	-0.04953712198253089	1.110423916938705	-3.431808686702451	0.4052410445105132	-2.026410815520066	-0.01739860805399385	-4.194512344206262	-4.194512344206408	0.02274111831590661	-0.006475391272956179	-1.862804777457898	-0.7944267949476125	1.424504161084371e-09	1.058303995737206e-08	-6.366470409912648e-09	2.818613162897833e-09	-1.17037239485166e-10	1.820620214294946e-08	4.872345186260477e-10
1.01	-0.2031216158775069	0.07618162157325012	0.7153233665592181	0.9971551420094482	-0.5018395934248061	-0.08605569349018664	-0.2617987064369768	1.149000192361713	1.149000192361987	-0.1600515896543131	-0.1745323086660625	0.4363322210470948	0.08918134023813162	-0.01011545549579835	0.008498090344752079	0.01077121430358028	-0.03211412674511285	0.001982974111969237	-0.02197268899217221	-2.167489108299823e-05	-0.04261523089261209	-0.04261523089261333	-0.001279082136607917	-4.171808887479744e-06	-0.006049144641955786	-0.001138643949763643	-0.1301070273316022	0.0731613299644434	-0.01026635507600074	-0.3083756481539426	-0.1022273970823708	0.0246239859907167	0.1492665010729214	-69.23480573393762	-1.109452130310491	2.739701346273734	13.354328160955	-599.1166078348733	-66.094256559326	-10.22651364193488	0.6004050903484136	-0.04977361584806243	1.105321459866528	-3.392618811587493	0.41698528164974	-2.050192169708936	0.008449611749246222	-4.180382650665845	-4.180382650666077	0.07367836103930471	0.002757573172786854	-1.856174996844772	-0.7689370976429294	-3.000370289254491e-09	2.418061077529017e-09	1.934085519630349e-08	2.934583204324234e-09	-6.275832987614352e-09	7.781894720676191e-09	-3.767487808332591e-09
1.02	-0.2031925257572112	0.07626413228561708	0.715486369468245	0.9966639928871454	-0.5017990780130019	-0.08637747537582025	-0.2617987806438278	1.148364851977037	1.148364851976927	-0.1600615288753723	-0.1745323551578866	0.4361788086167585	0.0891311391443155	-0.004075741610698277	0.008004774643259997	0.02182636066727748	-0.06610188172182029	0.006121733841718787	-0.04238075356868986	1.43767750418506e-05	-0.08444952480798811	-0.08444952480798824	-0.0007079256611170459	-4.599927790263071e-06	-0.02463342800409172	-0.008898701164723074	-0.13007917561984	0.07317939632297256	-0.01026907226785581	-0.3082175181413039	-0.1022616639525055	0.02462824420319354	0.1492378587063874	-69.24416140729357	-1.115766847637728	2.747679369828269	13.32508431832055	-599.1201337819942	-66.0856192931721	-10.25361774144171	0.6138709052615114	-0.04866540739126018	1.106805574880938	-3.415232833210078	0.4071740934025686	-2.022910189934046	-0.008346700540659372	-4.190520767466286	-4.190520767465943	0.02374040011807478	-0.005809943867677713	-1.862908967452621	-0.7909997343511546	-7.793423110456767e-09	-6.300832615632416e-09	4.528027614707746e-08	3.330178294981146e-09	-1.29058969227217e-08	-3.270177246549082e-09	-8.023161229003403e-09
1.03	-0.2032031876367639	0.07634170318248132	0.7157598178223454	0.9958333026656456	-0.5017171090034691	-0.08690318293981668	-0.2617984975714547	1.147311245737911	1.147311245737855	-0.1600657878928795	-0.1745323879506695	0.4358394862817806	0.08900342744845754	0.00194669511927093	0.007507257822923863	0.03285875995430481	-0.1000299130074511	0.01027567538321273	-0.0627526990666433	2.69971534744992e-05	-0.1262706807157606	-0.126270680715761	-0.0001469094638411764	-1.691669559769801e-06	-0.0432375675778815	-0.01663998695146404	-0.1299498985423921	0.07320386784751858	-0.01028368123950236	-0.307826976780868	-0.1022991579976921	0.02463815700508864	0.1491119385899528	-69.24107270765435	-1.1317824938202	2.762991557935232	13.32037475921185	-598.8925058579018	-66.07129398774514	-10.29844392773235	0.596928699951576	-0.05061610745402465	1.100770627481527	-3.380651961464961	0.4200360687135333	-2.043137033713358	0.003780323172064638	-4.177754175730056	-4.177754175730463	0.07182450829181102	0.003394612348249014	-1.860146886280766	-0.765151336882409	-1.259023285381071e-08	-1.502537850076649e-08	7.122206541769386e-08	3.728626702466942e-09	-1.954076971687986e-08	-1.432865497443713e-08	-1.227884435471209e-08
